 <svg version="1.0" xmlns="http://www.w3.org/2000/svg" width="700.000000pt" height="476.000000pt" viewBox="0 0 700.000000 476.000000" preserveAspectRatio="xMidYMid meet">
<metadata>
Created by potrace 1.12, written by Peter Selinger 2001-2015
</metadata>
<g transform="translate(0.000000,476.000000) scale(0.100000,-0.100000)" fill="#000000" stroke="none">
<path d="M1905 3113 c-3 -10 -18 -43 -34 -73 -31 -61 -74 -96 -130 -106 -53
-8 -63 -13 -56 -24 3 -5 28 -10 56 -10 l49 0 0 -278 c0 -370 11 -409 120 -420
64 -6 101 10 148 63 51 58 69 92 55 106 -8 8 -21 -4 -45 -42 -51 -80 -91 -104
-122 -74 -14 14 -16 55 -16 330 l0 314 85 3 c48 2 85 7 85 13 0 6 -37 11 -85
13 l-85 3 0 94 c0 87 -13 131 -25 88z"></path>
<path d="M972 3048 c-16 -16 -15 -33 3 -48 9 -7 93 -24 188 -37 94 -13 175
-27 178 -31 4 -4 27 -99 53 -212 105 -468 138 -605 148 -617 8 -10 154 -13
699 -13 l689 0 10 23 c5 12 57 193 115 401 108 390 110 406 65 406 -10 0 -22
-6 -28 -12 -9 -12 -69 -218 -169 -583 -19 -71 -39 -138 -45 -147 -8 -17 -49
-18 -643 -18 l-634 0 -10 38 c-5 20 -49 206 -96 412 -47 206 -92 380 -98 386
-7 7 -98 23 -203 38 -222 30 -207 29 -222 14z"></path>
<path d="M4216 3051 c-58 -4 -91 -10 -94 -18 -2 -9 11 -13 46 -13 l49 0 7 -52
c8 -68 8 -911 0 -932 -4 -12 -20 -16 -56 -16 -31 0 -48 -4 -46 -11 6 -17 343
-15 343 3 0 9 -15 13 -50 13 l-50 0 -3 518 -2 517 -28 -2 c-15 -1 -67 -4 -116
-7z"></path>
<path d="M4717 3051 c-95 -6 -116 -23 -40 -31 l48 -5 0 -495 0 -495 -48 -3
c-27 -2 -47 -8 -45 -13 5 -14 331 -14 336 -1 2 6 -17 12 -45 14 l-48 3 -3 518
-2 517 -33 -2 c-17 -1 -71 -4 -120 -7z"></path>
<path d="M2620 2938 c-30 -15 -56 -40 -78 -73 -19 -27 -38 -51 -43 -53 -5 -2
-9 26 -9 62 l0 66 -117 -6 c-65 -4 -120 -8 -122 -10 -12 -11 17 -24 54 -24
l43 0 4 -312 c2 -172 2 -319 0 -325 -3 -8 -23 -13 -53 -13 -27 0 -49 -4 -49
-10 0 -6 65 -10 175 -10 104 0 175 4 175 9 0 6 -24 11 -52 13 l-53 3 -3 160
c-2 88 2 196 8 239 26 179 94 276 194 276 40 0 96 -41 96 -71 0 -24 -12 -24
-35 1 -27 30 -78 27 -104 -6 -45 -58 -8 -134 64 -134 47 0 71 14 90 50 35 69
8 147 -61 176 -46 19 -73 18 -124 -8z"></path>
<path d="M3518 2720 c-59 -10 -142 -55 -174 -93 -111 -132 -125 -359 -31 -516
60 -100 156 -146 295 -139 133 6 210 54 266 167 53 106 60 268 17 382 -57 149
-206 228 -373 199z m163 -50 c62 -45 89 -140 89 -319 0 -233 -40 -327 -149
-352 -88 -20 -168 35 -196 133 -38 136 -29 386 18 478 43 86 160 115 238 60z"></path>
<path d="M5563 2719 c-73 -22 -97 -107 -44 -160 35 -34 68 -37 105 -8 38 30
37 89 -1 118 l-28 20 33 1 c74 0 119 -97 110 -236 -4 -59 -12 -89 -41 -148
-78 -157 -186 -200 -271 -106 -56 62 -96 233 -96 411 l0 99 -117 -6 c-144 -8
-182 -28 -68 -36 l40 -3 6 -125 c4 -69 12 -149 19 -179 31 -135 115 -260 191
-282 l38 -12 -43 -48 c-53 -59 -75 -104 -83 -169 -5 -41 -1 -59 21 -104 30
-62 63 -90 118 -100 101 -18 176 83 117 158 -16 20 -29 26 -60 26 -76 0 -109
-80 -51 -127 l27 -22 -26 -1 c-59 0 -109 68 -109 150 0 100 37 151 191 260
138 99 178 149 214 274 36 124 4 289 -65 337 -32 23 -86 30 -127 18z"></path>
<path d="M1664 1971 c-63 -29 -89 -72 -89 -151 0 -77 24 -119 85 -150 98 -50
209 1 241 110 30 98 -58 210 -163 210 -18 0 -51 -9 -74 -19z m134 -81 c63 -59
26 -160 -57 -160 -59 0 -96 35 -96 90 0 34 6 47 28 66 36 31 94 32 125 4z"></path>
<path d="M2651 1968 c-68 -35 -86 -66 -86 -146 0 -79 23 -120 85 -152 90 -46
187 -10 231 85 24 52 24 87 -1 135 -46 89 -144 123 -229 78z m143 -89 c15 -17
26 -43 26 -59 0 -16 -11 -42 -26 -59 -21 -25 -34 -31 -64 -31 -58 0 -95 35
-95 90 0 55 37 90 95 90 30 0 43 -6 64 -31z"></path>
</g>
</svg>