<?xml version="1.0" standalone="no"?>
<!DOCTYPE svg PUBLIC "-//W3C//DTD SVG 20010904//EN"
 "http://www.w3.org/TR/2001/REC-SVG-20010904/DTD/svg10.dtd">
<svg version="1.0" xmlns="http://www.w3.org/2000/svg"
 preserveAspectRatio="xMidYMid meet">
<g transform="translate(0.000000,0.000000) scale(0.100000,-0.100000)"
fill="#000000" stroke="none" width="50%" height="50%" viewBox="0 0 50 50">
<path d="M1724 2823 c-32 -101 -78 -149 -154 -159 -63 -8 -61 -28 3 -32 l46
-3 3 -272 c3 -305 6 -319 71 -350 51 -26 108 -15 156 28 47 43 86 111 69 121
-7 4 -16 0 -22 -11 -38 -64 -73 -100 -103 -103 -25 -3 -32 1 -37 20 -3 13 -6
145 -6 295 l0 272 82 3 c54 2 83 7 86 16 3 9 -18 12 -82 12 l-86 0 0 90 c0 55
-4 90 -10 90 -6 0 -13 -8 -16 -17z"/>
<path d="M883 2773 c-7 -2 -13 -15 -13 -28 0 -13 6 -27 13 -32 6 -4 84 -17
171 -28 l160 -20 9 -35 c5 -19 33 -141 62 -270 95 -419 104 -453 117 -462 7
-4 291 -8 630 -8 l618 0 14 22 c8 13 32 88 54 168 22 80 55 197 73 260 71 256
78 282 72 296 -3 8 -18 14 -34 14 -26 0 -30 -5 -45 -57 -9 -32 -26 -93 -39
-135 -13 -42 -34 -114 -45 -160 -12 -46 -37 -138 -57 -205 l-36 -123 -577 0
-578 0 -17 78 c-9 42 -27 118 -40 167 -13 50 -43 179 -66 289 -24 109 -48 204
-54 212 -6 9 -72 23 -185 39 -183 26 -187 26 -207 18z"/>
<path d="M3821 2771 c-54 -4 -86 -10 -89 -18 -2 -9 11 -13 47 -13 l51 0 0
-450 0 -450 -45 0 c-33 0 -45 -4 -45 -15 0 -13 24 -15 155 -15 131 0 155 2
155 15 0 11 -12 15 -45 15 l-45 0 0 470 0 470 -27 -2 c-16 -1 -66 -4 -112 -7z"/>
<path d="M4281 2771 c-54 -4 -86 -10 -89 -18 -2 -9 11 -13 47 -13 l51 0 0
-450 0 -450 -45 0 c-33 0 -45 -4 -45 -15 0 -13 24 -15 155 -15 131 0 155 2
155 15 0 11 -12 15 -45 15 l-45 0 0 470 0 470 -27 -2 c-16 -1 -66 -4 -112 -7z"/>
<path d="M2396 2680 c-37 -12 -82 -55 -109 -105 l-22 -40 -3 71 -3 71 -47 -8
c-26 -4 -75 -8 -109 -8 -49 -1 -63 -4 -63 -16 0 -11 12 -15 45 -15 l45 0 0
-289 0 -290 -42 -3 c-23 -2 -43 -9 -46 -15 -3 -10 33 -13 157 -13 136 0 161 2
161 15 0 11 -12 15 -50 15 l-50 0 0 148 c0 227 25 344 87 413 22 25 47 41 69
45 58 11 114 -24 114 -70 0 -22 -17 -20 -25 3 -14 44 -94 33 -114 -16 -35 -86
82 -145 143 -72 41 49 29 133 -24 167 -26 16 -81 22 -114 12z"/>
<path d="M3180 2469 c-139 -27 -230 -161 -230 -339 0 -187 92 -314 246 -341
166 -29 306 62 349 226 55 215 -46 421 -225 455 -60 11 -77 11 -140 -1z m156
-46 c60 -39 90 -163 81 -337 -10 -201 -51 -269 -162 -270 -67 -1 -101 21 -135
90 -24 47 -25 58 -25 219 0 185 11 239 59 284 45 43 129 49 182 14z"/>
<path d="M5053 2473 c-12 -2 -33 -16 -47 -30 -54 -53 -20 -143 54 -143 44 0
70 26 70 70 0 30 -8 43 -35 58 -18 10 -17 11 12 12 84 1 128 -171 78 -307 -25
-69 -81 -143 -127 -168 -35 -18 -40 -19 -80 -5 -84 30 -127 143 -137 365 -5
113 -9 139 -20 137 -8 -2 -58 -6 -113 -9 -73 -4 -98 -10 -98 -20 0 -9 15 -13
50 -13 l50 0 0 -102 c0 -125 18 -216 58 -295 35 -68 99 -131 143 -140 l30 -6
-45 -46 c-54 -55 -76 -104 -76 -168 1 -129 134 -219 219 -147 61 51 32 148
-44 148 -69 0 -100 -73 -48 -113 31 -25 26 -35 -11 -25 -38 9 -78 66 -83 118
-11 90 36 160 159 242 135 89 195 171 219 300 14 73 7 137 -22 203 -17 40 -30
54 -63 71 -42 20 -51 21 -93 13z"/>
<path d="M1515 1796 c-54 -24 -87 -70 -93 -125 -5 -61 10 -102 50 -136 82 -69
204 -43 244 52 56 130 -75 265 -201 209z m106 -77 c30 -16 42 -56 28 -96 -12
-38 -34 -53 -77 -53 -36 0 -82 48 -82 86 0 55 77 92 131 63z"/>
<path d="M2401 1788 c-139 -72 -88 -292 67 -292 161 0 221 190 91 287 -42 30
-106 33 -158 5z m126 -73 c59 -41 24 -144 -49 -145 -40 0 -57 9 -74 42 -17 33
-12 72 13 101 20 21 81 23 110 2z"/>
</g>
</svg>
